<mxfile host="app.diagrams.net" modified="2022-01-04T06:25:37.618Z" agent="5.0 (Macintosh; Intel Mac OS X 10_15_7) AppleWebKit/605.1.15 (KHTML, like Gecko) Version/15.1 Safari/605.1.15" etag="DMTPtkcHI8c9M999oK7F" version="16.1.4" type="github">
  <diagram id="5e5Dk54hfpTxT54ZvgJR" name="Page-1">
    <mxGraphModel dx="946" dy="645" grid="1" gridSize="10" guides="1" tooltips="1" connect="1" arrows="1" fold="1" page="1" pageScale="1" pageWidth="827" pageHeight="1169" math="0" shadow="0">
      <root>
        <mxCell id="0" />
        <mxCell id="1" parent="0" />
        <mxCell id="ZuTiCQ5FA80Gp5bhVFO8-1" value="&lt;font style=&quot;font-size: 24px&quot;&gt;gpx文件&lt;/font&gt;" style="ellipse;whiteSpace=wrap;html=1;" vertex="1" parent="1">
          <mxGeometry x="150" y="200" width="120" height="80" as="geometry" />
        </mxCell>
        <mxCell id="ZuTiCQ5FA80Gp5bhVFO8-2" value="轉檔" style="rounded=0;whiteSpace=wrap;html=1;fontSize=24;" vertex="1" parent="1">
          <mxGeometry x="354" y="145" width="120" height="190" as="geometry" />
        </mxCell>
        <mxCell id="ZuTiCQ5FA80Gp5bhVFO8-3" value="" style="endArrow=classic;html=1;rounded=0;fontSize=24;exitX=1;exitY=0.5;exitDx=0;exitDy=0;entryX=0;entryY=0.5;entryDx=0;entryDy=0;" edge="1" parent="1" source="ZuTiCQ5FA80Gp5bhVFO8-1" target="ZuTiCQ5FA80Gp5bhVFO8-2">
          <mxGeometry width="50" height="50" relative="1" as="geometry">
            <mxPoint x="390" y="360" as="sourcePoint" />
            <mxPoint x="440" y="310" as="targetPoint" />
          </mxGeometry>
        </mxCell>
        <mxCell id="ZuTiCQ5FA80Gp5bhVFO8-4" value="kml文件" style="ellipse;whiteSpace=wrap;html=1;fontSize=24;" vertex="1" parent="1">
          <mxGeometry x="590" y="200" width="120" height="80" as="geometry" />
        </mxCell>
        <mxCell id="ZuTiCQ5FA80Gp5bhVFO8-5" value="" style="endArrow=classic;html=1;rounded=0;fontSize=24;exitX=1;exitY=0.5;exitDx=0;exitDy=0;entryX=0;entryY=0.5;entryDx=0;entryDy=0;" edge="1" parent="1" source="ZuTiCQ5FA80Gp5bhVFO8-2" target="ZuTiCQ5FA80Gp5bhVFO8-4">
          <mxGeometry width="50" height="50" relative="1" as="geometry">
            <mxPoint x="390" y="390" as="sourcePoint" />
            <mxPoint x="440" y="340" as="targetPoint" />
          </mxGeometry>
        </mxCell>
        <mxCell id="ZuTiCQ5FA80Gp5bhVFO8-6" value="google earth" style="ellipse;whiteSpace=wrap;html=1;aspect=fixed;fontSize=24;" vertex="1" parent="1">
          <mxGeometry x="580" y="380" width="140" height="140" as="geometry" />
        </mxCell>
        <mxCell id="ZuTiCQ5FA80Gp5bhVFO8-7" value="" style="endArrow=classic;html=1;rounded=0;fontSize=24;exitX=0.5;exitY=1;exitDx=0;exitDy=0;" edge="1" parent="1" source="ZuTiCQ5FA80Gp5bhVFO8-4" target="ZuTiCQ5FA80Gp5bhVFO8-6">
          <mxGeometry width="50" height="50" relative="1" as="geometry">
            <mxPoint x="390" y="430" as="sourcePoint" />
            <mxPoint x="440" y="380" as="targetPoint" />
          </mxGeometry>
        </mxCell>
      </root>
    </mxGraphModel>
  </diagram>
</mxfile>
